<svg width="30" height="30" viewBox="0 0 30 30" fill="none" xmlns="http://www.w3.org/2000/svg">
<rect x="0.5" y="0.5" width="29" height="29" rx="9.5" fill="url(#paint0_linear_1_535)" stroke="#21262E"/>
<path d="M20.8333 12.97V10.3217C20.8333 9.49916 20.46 9.16666 19.5325 9.16666H17.1758C16.2483 9.16666 15.875 9.49916 15.875 10.3217V12.9642C15.875 13.7925 16.2483 14.1192 17.1758 14.1192H19.5325C20.46 14.125 20.8333 13.7925 20.8333 12.97Z" fill="white" fill-opacity="0.4"/>
<path d="M20.8333 19.5325V17.1758C20.8333 16.2483 20.46 15.875 19.5325 15.875H17.1758C16.2483 15.875 15.875 16.2483 15.875 17.1758V19.5325C15.875 20.46 16.2483 20.8333 17.1758 20.8333H19.5325C20.46 20.8333 20.8333 20.46 20.8333 19.5325Z" fill="white" fill-opacity="0.4"/>
<path d="M14.1251 12.97V10.3217C14.1251 9.49916 13.7517 9.16666 12.8242 9.16666H10.4676C9.54008 9.16666 9.16675 9.49916 9.16675 10.3217V12.9642C9.16675 13.7925 9.54008 14.1192 10.4676 14.1192H12.8242C13.7517 14.125 14.1251 13.7925 14.1251 12.97Z" fill="white" fill-opacity="0.4"/>
<path d="M14.1251 19.5325V17.1758C14.1251 16.2483 13.7517 15.875 12.8242 15.875H10.4676C9.54008 15.875 9.16675 16.2483 9.16675 17.1758V19.5325C9.16675 20.46 9.54008 20.8333 10.4676 20.8333H12.8242C13.7517 20.8333 14.1251 20.46 14.1251 19.5325Z" fill="white" fill-opacity="0.4"/>
<defs>
<linearGradient id="paint0_linear_1_535" x1="3.77496e-07" y1="2.5" x2="26" y2="30" gradientUnits="userSpaceOnUse">
<stop stop-color="#21262E"/>
<stop offset="1" stop-color="#21262E" stop-opacity="0"/>
</linearGradient>
</defs>
</svg>
